:SAMPLES-PER-SECOND 30
:FULLY-SPECIFIED
:DEGREES
272
root  67.3266 40.3177 -1.18353 -24.2404 79.6733 -29.7389
RightUpLeg  1.6561 -8.26086 -2.28708
RightLeg  4.73995 20.0203 3.10852
RightFoot  3.63657 -1.46031 11.2638
RightToes  -8.73116e-010 0 -3.6325e-017
Spine  20.7157 -1.30163 -28.7577
Spine1  -18.7029 -6.48404 43.2301
HEad  -17.0647 7.89785 -16.8518
LeftShoulder1  -11.1067 48.6019 -16.1301
LeftArm  103.842 -63.4993 153.959
LeftForeArm  17.8921 -11.5004 11.5589
LeftHand  -0.0399493 9.84075 0.325498
RightShoulder  0.889138 8.27152 -0.993987
RightArm  -59.8794 79.5549 136.089
RightForeArm  73.4378 46.6831 165.281
RightHand  8.73993 19.5796 38.2078
LeftUpLeg  -10.1752 8.79606 5.53268
LeftLeg  0.310175 -15.3544 -2.87166
LeftFoot  9.54248 0.626371 -3.72099
LeftToes  -5.63919e-011 3.32596e-011 1.92487e-011
273
root  67.5295 40.3608 -1.28068 -26.0233 79.4273 -31.7076
RightUpLeg  2.01579 -8.27615 -2.17456
RightLeg  4.08329 20.1481 3.09165
RightFoot  4.28785 -1.63429 12.0826
RightToes  -8.73116e-010 0 -3.6325e-017
Spine  20.8543 -0.916148 -27.7636
Spine1  -18.0956 -6.18812 42.6759
HEad  -15.2884 8.20255 -15.9266
LeftShoulder1  -13.4681 43.87 -25.0884
LeftArm  121.844 -58.4676 149.817
LeftForeArm  12.4788 -4.20264 12.6582
LeftHand  -0.0127352 8.87921 1.10401
RightShoulder  0.614883 9.42944 -4.21881
RightArm  -31.5471 68.4313 167.827
RightForeArm  78.3585 47.7578 163.98
RightHand  10.7359 19.9403 45.7807
LeftUpLeg  -10.0111 8.93264 5.66964
LeftLeg  0.158779 -15.5588 -2.75898
LeftFoot  10.1911 0.342475 -2.12577
LeftToes  -5.63919e-011 3.32596e-011 1.92487e-011
274
root  67.7218 40.416 -1.39309 -23.794 79.139 -30.289
RightUpLeg  1.25893 -8.5834 -2.57598
RightLeg  4.13558 20.8105 3.33166
RightFoot  4.88523 -1.76578 12.578
RightToes  -8.73116e-010 0 -3.6325e-017
Spine  20.3074 -0.540359 -27.5328
Spine1  -17.6453 -5.81662 42.3471
HEad  -13.4208 8.37997 -14.9233
LeftShoulder1  -14.1456 40.8552 -29.7505
LeftArm  127.081 -55.3716 147.413
LeftForeArm  13.8239 0.657621 11.4651
LeftHand  -0.00201116 8.56824 1.55241
RightShoulder  0.289473 10.4688 -7.31208
RightArm  2.32083 66.8226 -162.904
RightForeArm  87.7123 64.1322 153.021
RightHand  7.85783 12.8823 46.3727
LeftUpLeg  -10.3469 8.46816 5.1884
LeftLeg  -0.425697 -14.7523 -2.39214
LeftFoot  10.9224 0.197464 -1.34821
LeftToes  -5.63919e-011 3.32596e-011 1.92487e-011
275
root  67.8407 40.4508 -1.47242 -22.9003 79.1171 -30.0558
RightUpLeg  0.677042 -8.56459 -2.6803
RightLeg  4.02754 20.9276 3.25529
RightFoot  5.27226 -1.87474 13.036
RightToes  -8.73116e-010 0 -3.6325e-017
Spine  19.8409 -0.398397 -27.0028
Spine1  -16.2336 -6.00506 41.3957
HEad  -11.7026 8.86534 -13.2593
LeftShoulder1  -14.2859 35.5839 -37.085
LeftArm  128.041 -49.8691 145.935
LeftForeArm  22.0201 2.5946 11.211
LeftHand  0.00982179 8.01358 2.20874
RightShoulder  -0.0750452 11.4998 -10.2317
RightArm  9.25982 66.5209 -145.415
RightForeArm  72.4219 67.8001 146.782
RightHand  5.79151 8.98878 43.8961
LeftUpLeg  -10.9792 8.04583 4.79873
LeftLeg  -0.389202 -14.4497 -2.17811
LeftFoot  11.7077 0.00153858 -0.35519
LeftToes  -5.63919e-011 3.32596e-011 1.92487e-011
276
root  67.9447 40.483 -1.53538 -24.4168 79.03 -31.9247
RightUpLeg  0.466799 -8.36199 -2.3482
RightLeg  3.86519 20.5666 3.15786
RightFoot  5.88137 -2.01218 13.4997
RightToes  -8.73116e-010 0 -3.6325e-017
Spine  19.5843 -0.426397 -26.2738
Spine1  -14.3681 -6.53368 40.4952
HEad  -10.0412 9.53606 -11.3017
LeftShoulder1  -13.6077 28.7835 -45.5774
LeftArm  132.037 -42.2001 143.415
LeftForeArm  30.6213 4.08589 10.1894
LeftHand  0.022314 7.91229 2.78318
RightShoulder  -0.518144 12.6085 -13.3995
RightArm  16.3238 66.0982 -132.089
RightForeArm  68.2757 66.755 148.06
RightHand  4.92814 7.67377 41.381
LeftUpLeg  -11.3188 7.91496 4.84709
LeftLeg  -0.185013 -14.0037 -1.98413
LeftFoot  11.8433 -0.0843165 0.0560476
LeftToes  -5.63919e-011 3.32596e-011 1.92487e-011
277
root  68.0058 40.5072 -1.58371 -22.6791 78.8594 -30.8692
RightUpLeg  -0.403811 -8.29151 -2.40386
RightLeg  4.06849 20.7357 3.12726
RightFoot  6.14494 -2.07925 13.7363
RightToes  -8.73116e-010 0 -3.6325e-017
Spine  22.5299 1.72437 -25.8663
Spine1  -20.9364 -2.53406 42.3909
HEad  -8.40384 7.37489 -12.583
LeftShoulder1  -13.3898 31.3737 -40.6597
LeftArm  135.921 -48.8515 144.668
LeftForeArm  17.8088 4.52853 7.59905
LeftHand  0.00178859 7.02763 2.6147
RightShoulder  -0.782516 13.2443 -15.0123
RightArm  20.0883 70.9139 -132.89
RightForeArm  76.1363 62.542 154.128
RightHand  4.70925 7.73094 39.4726
LeftUpLeg  -11.9041 7.36748 4.44052
LeftLeg  -0.417792 -13.1493 -1.62126
LeftFoot  12.5342 -0.205168 0.607814
LeftToes  -5.63919e-011 3.32596e-011 1.92487e-011
